{"title":"The Oranges 2011 REPACK DVDRip XviD-PHOBOS","uid":8174627,"size":741861584,"categoryP":"video","categoryS":"movies","magnet":"?xt=urn:btih:1f8e1a17e7e3365644e426688a41eb451594d3d0&amp;dn=The+Oranges+2011+REPACK+DVDRip+XviD-PHOBOS&amp;tr=udp%3A%2F%2Ftracker.openbittorrent.com%3A80&amp;tr=udp%3A%2F%2Fopen.demonii.com%3A1337&amp;tr=udp%3A%2F%2Ftracker.coppersurfer.tk%3A6969&amp;tr=udp%3A%2F%2Fexodus.desync.com%3A6969","seeders":9,"leechers":3,"uploader":"juggs99","files":4,"time":1361496053,"description":"Summary\n\nThe enduring friendship between the Walling and Ostroff families is tested when\nNina, the prodigal Ostroff daughter, returns home for the holidays after a five-year\nabsence and enters into an affair with David, head of the Walling family\n\nTech Info\n\nVideo\nID: 0\nFormat: MPEG-4 Visual\nFormat profile: Advanced Simple@L5\nFormat settings, BVOP: 2\nFormat settings, QPel: No\nFormat settings, GMC: No warppoints\nFormat settings, Matrix: Default (H.263)\nCodec ID: XVID\nCodec ID/Hint: XviD\nDuration: 1h 26mn\nBit rate: 999 Kbps\nWidth: 640 pixels\nHeight: 352 pixels\nDisplay aspect ratio: 16:9\nFrame rate: 25.000 fps\nColor space: YUV\nChroma subsampling: 4:2:0\nBit depth: 8 bits\nScan type: Progressive\nCompression mode: Lossy\nBits/(Pixel*Frame): 0.177\nStream size: 620 MiB (89%)\nWriting library: XviD 64\n\nAudio\nID: 1\nFormat: MPEG Audio\nFormat version: Version 1\nFormat profile: Layer 3\nMode: Joint stereo\nMode extension: MS Stereo\nCodec ID: 55\nCodec ID/Hint: MP3\nDuration: 1h 26mn\nBit rate mode: Variable\nBit rate: 116 Kbps\nNominal bit rate: 128 Kbps\nChannel(s): 2 channels\nSampling rate: 48.0 KHz\nCompression mode: Lossy\nStream size: 72.0 MiB (10%)\nAlignment: Aligned on interleaves\nInterleave, duration: 24 ms (0.60 video frame)\nInterleave, preload duration: 72 ms\nTitle: audio\nWriting library: LAME3.99r\n\nGroup Info\n\nOur mission is to provide the scene with decent quality rips of old TV classics\n\nGreets fly out to ARCHiViST, GERUDO, INQUISITION, RedBlade, REWARD, and everyone\nthat helped us; you know who you guys are!\n\nLooking for decent affil sites (no rented/colo) and rippers/cappers\n\nAsk around for us\n\n &lt;a href=&quot;\nhttp://www.shotpix.com/images/71776071945773669592.png&quot; rel=&quot;nofollow&quot; target=&quot;_NEW&quot;&gt;\nhttp://www.shotpix.com/images/71776071945773669592.png&lt;/a&gt; &lt;a href=&quot;\nhttp://www.shotpix.com/images/18689548450959735343.png&quot; rel=&quot;nofollow&quot; target=&quot;_NEW&quot;&gt;\nhttp://www.shotpix.com/images/18689548450959735343.png&lt;/a&gt; &lt;a href=&quot;\nhttp://www.shotpix.com/images/35590197238827635724.png&quot; rel=&quot;nofollow&quot; target=&quot;_NEW&quot;&gt;\nhttp://www.shotpix.com/images/35590197238827635724.png&lt;/a&gt;","torrent":{"xt":"urn:btih:1f8e1a17e7e3365644e426688a41eb451594d3d0","amp;dn":"The+Oranges+2011+REPACK+DVDRip+XviD-PHOBOS","amp;tr":["udp%3A%2F%2Ftracker.openbittorrent.com%3A80","udp%3A%2F%2Fopen.demonii.com%3A1337","udp%3A%2F%2Ftracker.coppersurfer.tk%3A6969","udp%3A%2F%2Fexodus.desync.com%3A6969"],"infoHash":"1f8e1a17e7e3365644e426688a41eb451594d3d0","infoHashBuffer":{"type":"Buffer","data":[31,142,26,23,231,227,54,86,68,228,38,104,138,65,235,69,21,148,211,208]},"announce":[],"urlList":[]}}